<svg
  width="100%"
  height="100%"
  viewBox="0 0 512 512"
  fill="none"
  xmlns="http://www.w3.org/2000/svg"
>
  <g id="svgg">
    <path
      id="path0"
      d="M194.858 65.869 C 193.830 66.897,192.598 69.507,192.120 71.669 C 191.642 73.831,188.872 82.980,185.965 92.000 C 183.058 101.020,179.227 113.080,177.453 118.800 C 175.678 124.520,171.858 136.490,168.963 145.400 L 163.699 161.600 139.250 161.800 C 125.802 161.910,101.628 162.000,85.528 162.000 C 53.024 162.000,53.600 161.907,53.600 167.134 C 53.600 169.983,54.014 170.398,67.258 180.836 C 74.769 186.756,84.183 194.300,88.178 197.600 C 92.172 200.900,96.852 204.680,98.577 206.000 C 104.512 210.542,122.807 225.565,127.470 229.726 C 131.788 233.580,132.113 234.109,131.787 236.747 C 131.408 239.807,122.977 269.232,117.216 287.600 C 107.125 319.773,106.512 322.867,109.778 325.155 C 113.468 327.739,114.353 327.397,133.789 315.868 C 140.712 311.760,152.542 304.800,160.077 300.400 C 167.612 296.000,178.507 289.574,184.289 286.119 C 198.763 277.470,198.506 277.478,211.743 285.339 C 217.542 288.783,228.799 295.380,236.759 300.000 C 244.719 304.620,258.054 312.450,266.392 317.400 C 282.334 326.864,284.657 327.668,288.073 324.902 C 290.643 322.821,290.371 320.208,286.146 306.400 C 267.930 246.863,264.989 236.122,266.109 233.205 C 266.389 232.475,272.059 227.525,278.709 222.205 C 285.359 216.885,291.388 211.962,292.107 211.266 C 292.827 210.570,298.900 205.680,305.604 200.400 C 312.308 195.120,321.627 187.740,326.311 184.000 C 330.996 180.260,336.888 175.662,339.404 173.782 C 344.536 169.948,345.673 167.452,343.678 164.407 C 341.763 161.485,339.958 161.304,318.644 161.900 C 307.934 162.199,284.476 162.197,266.515 161.895 L 233.858 161.347 229.227 146.474 C 226.680 138.293,222.823 126.380,220.657 120.000 C 216.485 107.715,210.913 90.528,206.073 75.013 C 202.526 63.643,199.528 61.199,194.858 65.869 M216.295 127.200 C 220.842 141.060,225.710 156.000,227.112 160.400 L 229.661 168.400 282.123 168.240 C 310.978 168.153,334.454 168.205,334.293 168.357 C 334.132 168.509,329.650 172.001,324.334 176.117 C 319.017 180.232,312.537 185.327,309.934 187.437 C 307.330 189.548,302.996 192.968,300.302 195.037 C 297.608 197.107,292.866 200.960,289.763 203.600 C 286.660 206.240,282.708 209.480,280.981 210.800 C 279.254 212.120,274.456 215.980,270.320 219.378 C 266.184 222.776,261.595 226.532,260.121 227.725 C 256.867 230.361,256.913 230.936,261.677 247.022 C 263.466 253.060,265.825 261.060,266.921 264.800 C 268.016 268.540,270.164 275.640,271.694 280.579 C 273.224 285.517,274.643 291.637,274.847 294.179 C 275.310 299.942,275.489 300.950,276.270 302.200 C 276.613 302.750,276.638 303.616,276.324 304.124 C 275.979 304.681,276.103 304.831,276.636 304.501 C 277.122 304.201,277.898 304.662,278.360 305.525 C 279.414 307.494,279.445 308.817,278.400 307.200 C 277.926 306.466,277.620 306.373,277.612 306.960 C 277.606 307.488,278.230 308.287,279.000 308.736 C 279.770 309.184,280.086 309.562,279.702 309.576 C 279.318 309.589,279.498 310.210,280.102 310.956 C 282.007 313.307,262.745 302.209,260.531 299.679 C 259.722 298.755,259.304 298.540,259.600 299.200 C 259.896 299.860,259.396 299.500,258.487 298.400 C 257.579 297.300,256.828 296.670,256.818 296.999 C 256.779 298.293,234.235 285.794,208.575 270.254 C 204.712 267.914,201.202 266.090,200.775 266.200 C 200.349 266.310,200.000 266.040,200.000 265.600 C 200.000 265.160,199.280 264.800,198.400 264.800 C 197.520 264.800,196.800 265.220,196.800 265.733 C 196.800 266.247,196.583 266.449,196.317 266.184 C 196.051 265.918,193.801 267.068,191.317 268.739 C 188.833 270.410,184.820 272.852,182.400 274.165 C 179.980 275.479,173.394 279.219,167.765 282.477 C 162.135 285.735,156.195 289.117,154.565 289.994 C 152.934 290.870,147.175 294.213,141.768 297.421 C 136.248 300.696,131.511 303.011,130.968 302.699 C 130.435 302.393,130.275 302.446,130.611 302.816 C 131.266 303.537,120.833 309.715,119.916 309.148 C 119.615 308.962,119.161 309.347,118.909 310.005 C 118.657 310.662,118.130 311.200,117.739 311.200 C 116.816 311.200,121.251 295.003,132.416 257.600 C 141.332 227.733,140.994 230.432,136.221 227.200 C 134.597 226.100,128.691 221.420,123.098 216.800 C 95.110 193.683,76.786 178.930,67.709 172.206 L 62.048 168.012 115.157 167.806 L 168.267 167.600 171.239 158.400 C 179.930 131.498,189.948 99.796,193.108 89.200 C 198.884 69.833,197.877 70.030,203.328 87.200 C 205.912 95.340,211.747 113.340,216.295 127.200 M231.634 85.076 C 230.799 85.686,230.514 86.566,230.858 87.463 C 231.619 89.445,234.732 88.879,235.042 86.702 C 235.336 84.646,233.451 83.747,231.634 85.076 M162.845 85.528 C 161.974 86.937,163.387 88.887,165.102 88.642 C 167.741 88.266,167.923 84.800,165.303 84.800 C 164.198 84.800,163.092 85.128,162.845 85.528 M248.000 92.764 L 248.000 98.327 250.706 98.835 C 258.186 100.238,261.549 105.828,258.504 111.796 C 254.550 119.547,243.597 117.430,241.974 108.600 C 241.147 104.107,236.000 103.957,236.000 108.426 C 236.000 115.048,241.826 121.856,248.327 122.831 C 266.141 125.502,273.180 100.960,256.589 94.027 C 253.947 92.924,253.600 92.454,253.600 89.989 C 253.600 87.335,253.465 87.200,250.800 87.200 L 248.000 87.200 248.000 92.764 M141.790 92.798 C 132.878 98.231,136.395 108.682,147.389 109.443 C 152.814 109.818,154.400 110.589,154.400 112.853 C 154.400 116.662,146.712 118.134,142.817 115.070 C 140.748 113.443,140.492 113.416,138.509 114.620 C 131.561 118.835,146.068 125.710,153.984 121.954 C 163.520 117.429,161.523 104.000,151.314 104.000 C 143.369 104.000,140.777 101.039,145.600 97.474 C 151.054 93.441,147.629 89.237,141.790 92.798 M150.434 93.713 C 150.481 97.419,155.117 100.701,157.143 98.463 C 159.693 95.645,157.858 92.860,152.600 91.567 C 150.525 91.057,150.402 91.180,150.434 93.713 M194.375 104.133 C 189.440 119.818,177.012 158.680,174.738 165.536 C 173.655 168.801,172.372 171.951,171.887 172.536 C 171.172 173.397,162.782 173.600,127.902 173.600 C 99.701 173.600,84.800 173.877,84.800 174.400 C 84.800 174.840,85.148 175.200,85.574 175.200 C 86.000 175.200,87.804 177.129,89.584 179.486 C 91.363 181.843,96.145 186.418,100.210 189.653 C 104.274 192.889,107.960 195.943,108.400 196.441 C 108.840 196.938,114.752 201.813,121.538 207.273 C 140.864 222.823,144.559 226.132,145.127 228.392 C 145.752 230.886,143.101 241.268,134.706 269.200 C 127.657 292.655,127.031 294.255,127.512 287.600 C 127.878 282.539,126.733 283.840,126.062 289.247 C 125.878 290.732,125.463 292.374,125.140 292.897 C 124.784 293.474,124.894 293.636,125.421 293.311 C 125.899 293.015,126.550 293.195,126.868 293.711 C 127.207 294.259,127.102 294.434,126.614 294.132 C 125.370 293.363,124.302 295.078,122.802 300.259 C 121.180 305.859,121.310 306.078,124.843 303.683 C 126.359 302.655,132.100 299.193,137.600 295.990 C 155.387 285.632,179.384 271.415,188.150 266.041 C 198.494 259.700,199.530 259.611,206.744 264.450 C 209.737 266.457,215.474 270.004,219.493 272.331 C 227.897 277.199,239.153 284.030,245.762 288.272 C 248.270 289.882,250.535 291.200,250.795 291.200 C 251.054 291.200,256.360 294.260,262.585 298.000 C 273.674 304.661,275.205 305.414,275.196 304.200 C 275.181 302.295,273.406 297.625,272.831 297.981 C 272.456 298.212,272.315 297.769,272.517 296.995 C 272.720 296.220,272.312 294.330,271.610 292.793 L 270.335 290.000 270.632 292.625 C 271.213 297.743,269.502 293.701,264.754 278.739 C 259.991 263.729,252.000 233.077,252.000 229.818 C 252.000 226.643,252.737 225.976,292.196 193.412 C 303.725 183.898,306.512 181.441,309.909 177.795 L 313.819 173.600 270.662 173.600 C 237.383 173.600,227.200 173.371,226.170 172.600 C 224.780 171.560,221.882 163.591,207.038 120.000 C 202.169 105.700,198.083 93.880,197.958 93.733 C 197.834 93.585,196.221 98.265,194.375 104.133 M168.499 96.430 C 167.990 97.756,169.798 98.867,171.127 98.045 C 172.185 97.391,171.317 95.200,170.000 95.200 C 169.434 95.200,168.759 95.754,168.499 96.430 M226.000 96.000 C 225.330 97.083,226.234 98.400,227.647 98.400 C 228.281 98.400,228.800 97.680,228.800 96.800 C 228.800 95.144,226.870 94.592,226.000 96.000 M120.140 107.735 C 120.479 109.496,123.600 109.735,123.600 108.000 C 123.600 107.340,122.758 106.681,121.729 106.535 C 120.278 106.330,119.921 106.599,120.140 107.735 M170.405 109.184 C 169.320 112.472,169.818 113.600,172.354 113.600 C 174.266 113.600,175.167 111.884,175.189 108.200 C 175.208 105.027,171.527 105.785,170.405 109.184 M222.702 107.567 C 222.090 109.163,223.903 114.403,225.062 114.388 C 227.246 114.359,228.216 112.970,227.644 110.690 C 226.642 106.698,223.739 104.864,222.702 107.567 M276.152 107.800 C 276.301 108.570,276.952 109.200,277.600 109.200 C 278.248 109.200,278.899 108.570,279.048 107.800 C 279.237 106.818,278.805 106.400,277.600 106.400 C 276.395 106.400,275.963 106.818,276.152 107.800 M200.849 119.333 C 206.179 133.789,208.255 147.456,203.170 134.614 C 202.165 132.076,200.898 129.460,200.354 128.800 C 199.810 128.140,199.183 126.880,198.960 126.000 C 198.737 125.120,198.549 131.153,198.542 139.407 C 198.535 147.661,198.794 154.251,199.117 154.051 C 199.811 153.623,207.432 177.399,208.884 184.520 C 209.777 188.901,211.932 191.092,212.025 187.714 C 212.039 187.211,212.893 185.844,213.922 184.676 L 215.793 182.551 256.015 181.960 C 286.147 181.517,296.096 181.598,295.672 182.284 C 295.293 182.897,291.631 183.200,284.619 183.200 C 278.852 183.200,274.356 183.423,274.628 183.695 C 274.900 183.967,276.580 184.170,278.362 184.145 C 280.143 184.120,281.600 184.438,281.600 184.850 C 281.600 185.263,282.119 185.600,282.753 185.600 C 285.493 185.600,284.407 187.234,279.382 190.672 C 276.422 192.697,270.940 196.725,267.200 199.622 C 263.460 202.520,256.440 207.891,251.600 211.558 C 239.896 220.426,238.661 221.781,239.869 224.433 C 240.383 225.560,241.367 229.253,242.056 232.641 C 243.403 239.259,245.984 248.316,249.624 259.200 C 252.085 266.561,258.632 285.076,259.624 287.483 C 260.056 288.533,258.708 287.953,255.007 285.495 L 249.779 282.025 251.290 280.104 C 253.580 277.193,251.752 269.545,244.573 252.000 C 244.122 250.900,243.649 249.640,243.521 249.200 C 243.392 248.760,241.118 242.196,238.467 234.614 L 233.647 220.828 241.023 215.380 C 245.081 212.384,250.740 208.230,253.600 206.150 C 256.460 204.070,260.420 201.110,262.400 199.571 C 264.380 198.033,268.790 194.792,272.200 192.369 C 275.610 189.946,278.400 187.735,278.400 187.456 C 278.400 187.019,242.427 187.829,236.800 188.393 C 235.700 188.503,232.460 188.719,229.600 188.871 C 226.740 189.024,231.600 189.340,240.400 189.574 L 256.400 190.000 250.000 191.508 C 242.686 193.232,201.734 203.825,200.160 204.400 C 199.397 204.679,199.570 205.263,200.809 206.590 C 202.674 208.589,223.272 238.447,226.321 243.572 L 228.241 246.800 225.921 244.760 C 224.644 243.638,217.930 238.984,211.000 234.419 L 198.400 226.118 198.400 216.108 C 198.400 206.494,198.344 206.160,196.990 207.649 C 195.130 209.695,180.249 229.648,176.597 234.994 C 173.254 239.888,170.951 242.947,167.528 247.042 C 164.443 250.733,158.650 261.316,159.338 262.005 C 159.619 262.286,161.316 261.590,163.109 260.458 C 164.901 259.326,166.645 258.398,166.984 258.397 C 167.323 258.395,169.220 257.298,171.200 255.959 C 174.492 253.733,186.458 246.413,194.555 241.672 C 199.014 239.060,200.127 239.612,232.675 260.564 C 238.150 264.089,238.111 264.844,233.221 250.000 C 223.757 221.270,229.018 228.833,240.392 260.308 C 243.838 269.846,244.088 269.508,236.812 265.154 C 233.151 262.963,230.319 261.772,229.437 262.052 C 228.650 262.301,226.565 261.696,224.803 260.706 C 221.948 259.101,221.293 258.325,221.458 256.741 C 221.485 256.488,219.457 255.064,216.953 253.576 C 214.449 252.089,210.420 249.557,208.000 247.951 C 205.580 246.345,202.411 244.420,200.959 243.674 L 198.317 242.316 187.456 248.958 C 181.482 252.611,175.921 256.230,175.097 257.000 C 174.274 257.770,173.330 258.404,173.000 258.410 C 170.901 258.443,169.533 259.472,169.990 260.672 C 170.384 261.709,170.282 261.789,169.525 261.037 C 168.403 259.924,165.245 261.179,166.019 262.431 C 166.281 262.855,165.886 262.952,165.110 262.655 C 164.241 262.321,163.931 262.441,164.264 262.980 C 164.775 263.806,162.666 265.202,161.348 264.910 C 160.211 264.658,156.114 267.980,155.613 269.560 C 154.624 272.674,144.782 277.631,144.811 275.000 C 144.845 271.868,145.821 270.425,147.603 270.872 C 149.566 271.365,152.088 264.880,158.364 243.200 C 159.701 238.580,162.105 231.082,163.707 226.538 L 166.618 218.275 170.909 216.171 C 176.161 213.596,176.159 213.683,171.000 210.383 C 168.690 208.905,162.120 204.398,156.400 200.367 C 145.585 192.746,142.498 190.836,141.923 191.410 C 141.571 191.762,149.951 198.599,153.558 200.905 C 158.582 204.116,163.647 209.460,162.200 210.025 C 159.988 210.888,157.935 209.621,141.629 197.327 L 129.258 188.000 124.040 188.000 L 118.821 188.000 122.811 190.797 C 125.005 192.336,130.220 196.292,134.400 199.589 C 138.580 202.886,145.080 207.739,148.845 210.373 C 152.610 213.007,157.083 216.366,158.785 217.838 L 161.879 220.512 159.772 226.856 C 158.613 230.345,156.170 237.880,154.342 243.600 C 152.514 249.320,150.392 255.102,149.626 256.448 C 148.215 258.928,143.469 272.526,142.798 276.012 C 142.597 277.056,142.918 278.470,143.512 279.155 C 145.575 281.535,145.395 282.767,142.716 284.600 C 141.269 285.590,139.819 286.400,139.494 286.400 C 139.169 286.400,138.012 287.210,136.923 288.200 C 135.671 289.338,135.090 289.559,135.341 288.800 C 135.559 288.140,137.266 282.560,139.133 276.400 C 141.000 270.240,143.579 261.770,144.864 257.577 C 147.638 248.526,147.614 248.800,145.626 248.800 C 144.328 248.800,144.169 248.484,144.721 247.000 C 145.145 245.859,146.064 245.194,147.230 245.182 C 148.883 245.167,149.464 243.988,152.951 233.582 L 156.833 222.000 152.664 218.200 C 150.371 216.110,148.037 214.400,147.476 214.400 C 146.915 214.400,146.071 213.680,145.600 212.800 C 145.129 211.920,144.216 211.200,143.572 211.200 C 142.927 211.200,142.400 210.918,142.400 210.572 C 142.400 210.227,141.333 209.315,140.029 208.544 C 138.725 207.774,137.193 206.707,136.624 206.172 C 133.617 203.347,126.490 199.216,125.366 199.647 C 124.077 200.142,113.505 192.465,105.294 185.071 L 101.200 181.384 140.781 181.692 L 180.361 182.000 185.434 165.600 C 191.886 144.742,191.869 144.825,189.634 144.241 C 188.493 143.942,188.001 143.324,188.240 142.490 C 188.442 141.780,190.319 135.440,192.411 128.400 C 194.502 121.360,196.608 114.160,197.091 112.400 C 197.833 109.696,198.015 109.502,198.260 111.149 C 198.420 112.222,199.585 115.904,200.849 119.333 M226.560 117.760 C 225.075 119.245,225.234 119.937,231.224 138.018 C 238.266 159.273,236.470 157.693,253.285 157.420 L 266.800 157.200 266.800 155.200 L 266.800 153.200 254.400 152.800 L 242.000 152.400 236.714 136.800 C 229.332 115.014,229.323 114.997,226.560 117.760 M112.359 120.530 C 109.506 127.722,110.120 127.200,104.515 127.200 C 96.544 127.200,95.970 128.686,101.871 134.048 L 106.521 138.275 105.111 142.748 C 103.088 149.167,104.217 149.945,109.994 146.109 L 114.445 143.154 117.862 145.505 C 124.143 149.826,125.706 148.454,123.735 140.350 C 123.194 138.129,123.528 137.517,127.307 133.797 C 132.537 128.648,131.964 127.200,124.694 127.200 L 119.984 127.200 117.792 122.641 C 115.083 117.008,113.933 116.561,112.359 120.530 M282.609 122.400 L 280.538 127.200 275.567 127.200 C 267.979 127.200,267.428 128.560,272.805 134.005 L 277.075 138.328 276.137 141.457 C 273.754 149.413,275.143 150.027,283.644 144.773 L 286.129 143.237 290.292 146.151 C 295.743 149.967,296.836 149.159,295.096 142.602 L 293.874 138.000 298.327 133.911 C 303.974 128.725,303.369 127.200,295.663 127.200 L 290.721 127.200 289.674 124.200 C 286.939 116.363,285.385 115.968,282.609 122.400 M161.977 134.591 C 155.403 154.682,157.400 152.714,143.319 152.979 L 131.600 153.200 131.600 155.200 L 131.600 157.200 144.927 157.419 L 158.254 157.638 159.935 155.501 C 161.930 152.965,172.316 121.176,171.686 119.535 C 171.446 118.911,170.356 118.400,169.262 118.400 C 167.385 118.400,166.980 119.302,161.977 134.591 M117.835 130.562 C 118.366 130.899,119.700 131.210,120.800 131.253 C 122.630 131.323,122.557 131.443,119.943 132.668 C 117.096 134.001,117.089 134.016,118.183 136.696 C 119.651 140.295,118.992 140.679,116.750 137.530 L 114.926 134.968 111.887 138.484 L 108.848 142.000 109.600 139.290 C 110.356 136.562,108.320 132.000,106.346 132.000 C 105.935 132.000,105.600 131.640,105.600 131.200 C 105.600 130.760,107.148 130.400,109.039 130.400 C 112.272 130.400,112.542 130.224,113.538 127.472 L 114.596 124.543 115.733 127.246 C 116.358 128.732,117.304 130.224,117.835 130.562 M286.909 127.877 C 287.538 129.544,288.495 130.305,290.484 130.721 L 293.200 131.287 290.800 132.549 C 289.480 133.243,288.304 133.890,288.186 133.987 C 288.068 134.083,288.516 135.206,289.181 136.481 C 289.846 137.756,290.368 139.340,290.341 140.000 C 290.314 140.663,289.875 140.304,289.361 139.200 C 287.432 135.054,286.263 134.947,283.031 138.623 L 280.061 142.000 280.917 138.823 C 281.754 135.716,281.705 135.590,278.686 133.035 L 275.600 130.424 279.469 130.412 C 283.030 130.401,283.411 130.208,284.245 128.000 C 285.371 125.017,285.821 124.996,286.909 127.877 M136.299 132.375 C 132.741 134.977,135.478 136.000,146.000 136.000 C 156.679 136.000,159.268 134.983,155.537 132.255 C 153.563 130.812,138.307 130.907,136.299 132.375 M248.948 131.831 C 241.774 132.053,241.506 132.127,241.748 133.831 C 242.121 136.448,263.200 137.076,263.200 134.470 C 263.200 131.613,262.165 131.422,248.948 131.831 M133.079 142.827 C 132.180 145.171,134.021 145.660,142.868 145.428 C 150.991 145.216,151.600 145.088,151.600 143.600 C 151.600 141.388,133.914 140.651,133.079 142.827 M246.541 143.374 C 246.921 146.050,265.200 146.272,265.200 143.600 C 265.200 142.103,264.591 141.985,255.741 141.774 C 246.294 141.548,246.282 141.551,246.541 143.374 M90.711 143.544 C 89.914 145.620,91.031 147.335,92.996 147.056 C 94.319 146.868,94.800 146.266,94.800 144.800 C 94.800 142.439,91.521 141.431,90.711 143.544 M305.112 143.541 C 304.369 145.476,305.367 147.200,307.228 147.200 C 308.586 147.200,308.858 146.781,308.653 145.007 C 308.369 142.547,305.888 141.519,305.112 143.541 M79.645 143.928 C 78.873 145.176,80.137 147.291,81.501 147.031 C 83.517 146.647,83.699 143.200,81.703 143.200 C 80.818 143.200,79.892 143.528,79.645 143.928 M316.291 144.395 C 316.014 145.117,316.171 146.091,316.640 146.560 C 317.859 147.779,320.168 146.665,319.850 145.012 C 319.495 143.170,316.932 142.726,316.291 144.395 M187.200 149.301 C 187.200 152.423,177.993 177.578,176.480 178.588 C 175.060 179.536,143.372 179.326,142.778 178.365 C 141.207 175.822,144.054 175.236,159.051 175.017 L 173.935 174.800 174.918 172.000 C 175.459 170.460,177.090 165.420,178.542 160.800 C 181.134 152.554,183.455 148.800,185.964 148.800 C 186.644 148.800,187.200 149.025,187.200 149.301 M211.564 149.297 C 213.400 150.001,214.973 153.375,218.795 164.800 L 222.140 174.800 237.386 175.017 C 252.758 175.236,255.602 175.808,254.022 178.365 C 253.012 179.998,220.475 179.451,218.958 177.775 C 217.771 176.463,208.800 151.641,208.800 149.667 C 208.800 148.687,209.670 148.570,211.564 149.297 M112.952 155.000 C 113.101 155.770,113.752 156.400,114.400 156.400 C 115.048 156.400,115.699 155.770,115.848 155.000 C 116.037 154.018,115.605 153.600,114.400 153.600 C 113.195 153.600,112.763 154.018,112.952 155.000 M284.000 155.200 C 284.000 156.089,284.533 156.800,285.200 156.800 C 285.867 156.800,286.400 156.089,286.400 155.200 C 286.400 154.311,285.867 153.600,285.200 153.600 C 284.533 153.600,284.000 154.311,284.000 155.200 M205.985 193.330 C 204.861 194.454,204.544 194.485,203.940 193.530 C 203.435 192.732,203.221 192.694,203.212 193.400 C 203.206 193.950,202.300 194.400,201.200 194.400 C 199.673 194.400,199.189 194.826,199.154 196.200 C 199.129 197.190,198.969 199.440,198.799 201.200 L 198.491 204.400 200.747 201.748 C 205.910 195.680,209.656 189.658,205.985 193.330 M192.999 204.164 C 193.261 204.846,193.091 205.789,192.622 206.258 C 192.019 206.861,192.268 206.980,193.476 206.664 C 194.414 206.419,194.987 205.903,194.749 205.518 C 194.512 205.133,194.839 205.019,195.478 205.264 C 196.116 205.509,196.876 205.325,197.166 204.855 C 197.457 204.385,197.163 204.000,196.513 204.000 C 195.863 204.000,194.699 203.758,193.927 203.461 C 192.876 203.058,192.642 203.235,192.999 204.164 M72.800 211.114 C 72.800 213.014,74.301 213.600,79.167 213.600 C 83.027 213.600,85.469 212.129,84.422 210.435 C 83.397 208.778,72.800 209.397,72.800 211.114 M312.800 211.114 C 312.800 213.043,314.309 213.603,319.465 213.588 C 324.197 213.574,326.048 212.721,325.342 210.881 C 324.542 208.798,312.800 209.016,312.800 211.114 M298.823 220.491 C 298.150 221.164,297.600 222.035,297.600 222.427 C 297.600 222.819,296.854 225.133,295.943 227.570 L 294.285 232.000 288.408 232.000 C 277.457 232.000,277.930 236.685,289.535 243.180 C 290.541 243.743,290.465 244.696,288.989 250.054 C 286.518 259.022,287.450 259.609,295.370 254.072 L 300.417 250.544 305.438 254.072 C 313.189 259.517,314.539 258.834,312.037 250.732 C 309.850 243.651,309.698 244.119,315.600 239.751 C 323.504 233.902,322.729 232.000,312.442 232.000 L 306.614 232.000 304.449 226.063 C 302.166 219.804,300.832 218.482,298.823 220.491 M79.750 220.517 C 78.651 221.616,79.221 223.313,80.600 223.048 C 81.370 222.899,82.000 222.273,82.000 221.656 C 82.000 220.393,80.589 219.678,79.750 220.517 M94.831 222.603 C 94.206 224.099,93.226 226.825,92.652 228.661 L 91.610 232.000 85.471 232.000 C 73.926 232.000,74.003 235.204,85.724 242.598 L 87.848 243.937 86.011 249.731 C 83.135 258.802,84.763 259.853,92.669 254.033 L 97.514 250.466 102.359 254.033 C 109.884 259.573,110.880 258.948,108.654 250.081 C 107.869 246.956,107.221 244.220,107.214 244.000 C 107.206 243.780,109.540 241.868,112.400 239.751 C 120.313 233.894,119.532 232.000,109.201 232.000 L 103.333 232.000 101.404 226.200 C 99.081 219.216,96.774 217.953,94.831 222.603 M316.512 220.555 C 315.555 221.511,315.995 223.200,317.200 223.200 C 317.860 223.200,318.400 222.681,318.400 222.047 C 318.400 220.711,317.258 219.808,316.512 220.555 M167.624 232.424 C 166.842 235.309,166.381 237.847,166.597 238.064 C 166.814 238.280,167.593 236.060,168.329 233.129 C 170.072 226.193,169.472 225.593,167.624 232.424 M307.049 236.955 L 310.000 237.200 305.898 238.723 L 301.796 240.246 304.098 242.496 C 307.897 246.210,306.590 246.536,302.539 242.885 L 300.679 241.207 297.460 244.658 C 293.812 248.568,293.031 248.584,294.609 244.716 C 295.667 242.124,295.615 241.962,292.868 239.223 L 290.038 236.400 293.949 236.000 C 297.686 235.618,297.914 235.452,299.059 232.301 L 300.257 229.002 302.177 232.856 C 303.895 236.303,304.409 236.735,307.049 236.955 M103.514 236.535 L 106.800 237.250 102.664 238.760 L 98.528 240.270 100.365 241.716 C 102.827 243.652,103.829 246.931,101.450 245.265 C 100.572 244.650,99.322 243.388,98.673 242.462 C 97.510 240.801,97.452 240.826,94.660 244.188 C 93.101 246.065,91.644 247.780,91.422 248.000 C 91.199 248.220,91.279 246.814,91.600 244.876 C 92.160 241.490,92.062 241.250,89.091 238.706 L 86.000 236.060 90.113 236.030 C 94.194 236.000,94.237 235.973,95.605 232.600 L 96.983 229.200 98.606 232.510 C 99.974 235.301,100.744 235.933,103.514 236.535 M164.800 242.400 C 163.621 246.778,164.246 247.403,165.527 243.127 C 166.068 241.322,166.330 239.663,166.108 239.441 C 165.886 239.220,165.298 240.551,164.800 242.400 M73.312 244.555 C 72.355 245.511,72.795 247.200,74.000 247.200 C 74.660 247.200,75.200 246.681,75.200 246.047 C 75.200 244.711,74.058 243.808,73.312 244.555 M322.912 244.555 C 321.955 245.511,322.395 247.200,323.600 247.200 C 324.260 247.200,324.800 246.681,324.800 246.047 C 324.800 244.711,323.658 243.808,322.912 244.555 M118.669 249.254 C 118.002 250.991,119.695 252.625,120.906 251.414 C 121.930 250.390,121.296 248.000,120.000 248.000 C 119.532 248.000,118.933 248.564,118.669 249.254 M275.553 248.877 C 274.707 250.245,277.375 252.545,278.501 251.419 C 279.002 250.918,279.196 249.943,278.931 249.254 C 278.378 247.811,276.351 247.585,275.553 248.877 M113.957 263.270 C 113.259 264.399,114.801 265.941,115.930 265.243 C 116.409 264.947,116.800 264.187,116.800 263.553 C 116.800 262.206,114.741 262.001,113.957 263.270 M280.357 263.270 C 280.061 263.748,280.205 264.525,280.676 264.996 C 281.674 265.994,284.271 264.286,283.544 263.109 C 282.935 262.124,281.005 262.221,280.357 263.270 M88.829 267.565 C 86.965 269.811,88.787 270.400,97.600 270.400 C 106.413 270.400,108.235 269.811,106.371 267.565 C 105.645 266.691,103.457 266.400,97.600 266.400 C 91.743 266.400,89.555 266.691,88.829 267.565 M291.515 267.534 C 290.598 269.924,292.091 270.400,300.503 270.400 C 308.765 270.400,308.907 270.369,308.656 268.600 C 308.328 266.292,292.372 265.299,291.515 267.534 M108.808 277.190 C 107.479 278.791,108.365 280.800,110.400 280.800 C 111.308 280.800,112.259 280.255,112.515 279.590 C 112.974 278.392,111.565 276.000,110.400 276.000 C 110.068 276.000,109.352 276.535,108.808 277.190 M285.721 276.697 C 283.936 277.847,284.963 280.400,287.211 280.400 C 288.796 280.400,289.200 279.996,289.200 278.411 C 289.200 276.310,287.569 275.507,285.721 276.697 M197.799 291.060 C 197.248 291.410,195.956 294.194,194.928 297.248 L 193.059 302.800 187.130 303.200 C 177.373 303.858,176.829 305.368,184.400 310.770 C 190.264 314.955,190.140 314.585,188.028 321.531 C 186.101 327.868,187.399 330.119,191.137 326.919 C 191.832 326.324,193.896 325.017,195.724 324.014 L 199.047 322.191 203.828 325.096 C 211.178 329.560,211.828 329.107,209.857 320.894 C 208.301 314.410,208.510 313.945,215.000 309.468 C 217.038 308.063,218.400 306.497,218.400 305.562 C 218.400 303.811,218.414 303.815,211.142 303.615 C 204.497 303.432,204.498 303.433,202.825 297.422 C 200.990 290.825,200.047 289.632,197.799 291.060 M204.995 307.633 L 208.236 308.180 204.004 309.671 C 201.677 310.490,199.689 311.260,199.587 311.380 C 192.508 319.771,192.013 320.097,193.702 315.250 C 194.539 312.850,194.426 312.498,192.149 310.418 C 189.351 307.862,189.578 307.200,193.254 307.200 C 195.558 307.200,196.001 306.814,197.298 303.678 L 198.755 300.156 200.255 303.621 C 201.582 306.686,202.128 307.149,204.995 307.633 M157.879 317.226 C 156.993 319.537,158.814 320.065,166.871 319.831 C 174.190 319.618,174.800 319.477,174.800 318.000 C 174.800 315.791,158.712 315.055,157.879 317.226 M222.679 317.226 C 221.793 319.537,223.614 320.065,231.671 319.831 C 238.990 319.618,239.600 319.477,239.600 318.000 C 239.600 315.791,223.512 315.055,222.679 317.226 M196.983 331.337 C 195.526 332.794,195.786 334.229,197.693 335.250 C 200.004 336.487,202.434 334.302,201.101 332.185 C 199.995 330.429,198.250 330.070,196.983 331.337 "
      stroke="none"
      fill="#000000"
      fill-rule="evenodd"
    ></path>
  </g>
</svg>
